<?xml version="1.0" encoding="utf-8"?>
<!-- Generator: Adobe Illustrator 26.1.0, SVG Export Plug-In . SVG Version: 6.00 Build 0)  -->
<svg version="1.1" id="Calque_1" xmlns="http://www.w3.org/2000/svg" xmlns:xlink="http://www.w3.org/1999/xlink" x="0px" y="0px"
	 viewBox="0 0 700 700" style="enable-background:new 0 0 700 700;" xml:space="preserve">
<symbol  id="d" viewBox="-11.3 -15.9 22.7 31.9">
	<path d="M-11.3-15.9h22.2v6.2h-14v5.9H10v6.2H-3.1v7.3h14.5v6.2h-22.7L-11.3-15.9z"/>
</symbol>
<g>
	<path d="M612.5,533.8H595c-5.2,0-8.8,3.5-8.8,8.8s3.5,8.8,8.8,8.8h17.5c5.2,0,8.8-3.5,8.8-8.8S617.8,533.8,612.5,533.8z"/>
	<path d="M560,533.8h-43.8v-245h8.8c14.9,0,27.1-12.2,27.1-27.1v-80.5c0-46.4-21-90.1-56.9-119.9c-3.5-3.5-9.6-2.6-12.2,0.9
		s-2.6,9.6,0.9,12.2c32.4,26.2,50.8,64.7,50.8,106.7v80.5c0,5.2-4.4,9.6-9.6,9.6h-8.8V210c0-14.9-12.2-26.2-26.2-26.2H210
		c-14.9,0-26.2,12.2-26.2,26.2v61.3H175c-5.2,0-9.6-4.4-9.6-8.8V182c0-71.8,54.2-130.4,125.1-136.5c3.5,8.8,13.1,15.8,24.5,15.8h70
		c11.4,0,21-7,24.5-16.6c14.9,1.8,28.9,4.4,42,10.5c0.9,0.9,8.8,1.8,11.4-4.4c1.8-4.4,0-9.6-4.4-11.4c-15.8-7-31.5-10.5-49-12.2
		C406,16.6,396.4,8.7,385,8.7h-70c-11.4,0-21.9,7.9-24.5,18.4c-80.5,6.1-142.6,73.5-142.6,154v81.4c0,14.9,12.2,26.2,27.1,26.2h8.8
		v245H87.5c-5.2,0-8.8,3.5-8.8,8.8s3.5,8.8,8.8,8.8H434c5.2,0,8.8-3.5,8.8-8.8s-3.5-8.8-8.8-8.8H201.2V306.2h17.5V350
		c0,14.9,11.4,26.2,26.2,26.2s26.2-11.4,26.2-26.2v-35c0-5.2,3.5-8.8,8.8-8.8s8.8,3.5,8.8,8.8v87.5c0,14.9,11.4,26.2,26.2,26.2
		s26.2-11.4,26.2-26.2c0-5.2-3.5-8.8-8.8-8.8s-8.8,3.5-8.8,8.8s-3.5,8.8-8.8,8.8s-8.8-3.5-8.8-8.8V315c0-14.9-11.4-26.2-26.2-26.2
		s-26.2,11.4-26.2,26.2v35c0,5.2-3.5,8.8-8.8,8.8s-8.8-3.5-8.8-8.8v-86.6c0-5.2-3.5-8.8-8.8-8.8s-8.8,3.5-8.8,8.8v25.4h-17.5V210
		c0-5.2,3.5-8.8,8.8-8.8h8.8v28c0,5.2,3.5,8.8,8.8,8.8s8.8-3.5,8.8-8.8v-28h157.5V315c0,5.2-3.5,8.8-8.8,8.8s-8.8-3.5-8.8-8.8v-52.5
		c0-14.9-11.4-26.3-26.2-26.3s-26.2,11.4-26.2,26.3v105c0,5.2,3.5,8.8,8.8,8.8s8.8-3.5,8.8-8.8v-61.2h17.5v8.8
		c0,14.9,11.4,26.2,26.2,26.2s26.2-11.4,26.2-26.2v-8.8h87.5v227.5h-25.4c-5.2,0-8.8,3.5-8.8,8.8s3.5,8.8,8.8,8.8H560
		c5.2,0,8.8-3.5,8.8-8.8S565.2,533.7,560,533.8L560,533.8z M315,26.2h70c5.2,0,8.8,3.5,8.8,8.8s-3.5,8.8-8.8,8.8h-70
		c-5.2,0-8.8-3.5-8.8-8.8S309.8,26.2,315,26.2z M358.8,288.8h-17.5v-26.2c0-5.2,3.5-8.8,8.8-8.8s8.8,3.5,8.8,8.8V288.8z
		 M498.8,288.8h-87.5v-87.5H490c5.2,0,8.8,3.5,8.8,8.8V288.8z"/>
	<path d="M227.5,463.8c-5.2,0-8.8,3.5-8.8,8.8v35c0,5.2,3.5,8.8,8.8,8.8h35c5.2,0,8.8-3.5,8.8-8.8s-3.5-8.8-8.8-8.8h-26.2v-26.2
		C236.2,467.2,232.8,463.8,227.5,463.8z"/>
	<path d="M297.5,498.8c-5.2,0-8.8,3.5-8.8,8.8s3.5,8.8,8.8,8.8H315c5.2,0,8.8-3.5,8.8-8.8s-3.5-8.8-8.8-8.8H297.5z"/>
	<path d="M385,358.8c-14.9,0-26.2,11.4-26.2,26.2v17.5c0,14.9,11.4,26.2,26.2,26.2s26.2-11.4,26.2-26.2V385
		C411.2,370.1,399.9,358.8,385,358.8z M393.8,402.5c0,5.2-3.5,8.8-8.8,8.8s-8.8-3.5-8.8-8.8V385c0-5.2,3.5-8.8,8.8-8.8
		s8.8,3.5,8.8,8.8V402.5z"/>
	<g>
		<defs>
			<rect id="SVGID_1_" x="674.3" y="691.2" width="700" height="700"/>
		</defs>
		<clipPath id="SVGID_00000088125688931863915570000008568337541655671988_">
			<use xlink:href="#SVGID_1_"  style="overflow:visible;"/>
		</clipPath>
		<g style="clip-path:url(#SVGID_00000088125688931863915570000008568337541655671988_);">
			
				<use xlink:href="#d"  width="22.7" height="31.9" x="-11.3" y="-15.9" transform="matrix(1 0 0 1 689.6915 675.3044)" style="overflow:visible;"/>
		</g>
	</g>
</g>
</svg>
