<svg id="Calque_1" data-name="Calque 1" xmlns="http://www.w3.org/2000/svg" viewBox="0 0 403.28 212.86"><path d="M18.56,0A18.56,18.56,0,0,0,0,18.28,17.78,17.78,0,0,0,11.9,35V177.87A18.15,18.15,0,0,0,0,194.74c0,9.84,8.41,18.12,18.56,18.12a19,19,0,0,0,17.3-11.4H367.41a18.83,18.83,0,0,0,17.3,11.4c10.15,0,18.57-8.28,18.57-18.12a18.18,18.18,0,0,0-11.91-16.87V35a17.8,17.8,0,0,0,11.91-16.7A18.56,18.56,0,0,0,384.71,0a18.75,18.75,0,0,0-17.3,11.56H35.85A18.89,18.89,0,0,0,18.56,0Zm0,8.91a9.37,9.37,0,1,1,0,18.74,9.61,9.61,0,0,1-9.68-9.36A9.5,9.5,0,0,1,18.56,8.91Zm366.14,0a9.37,9.37,0,1,1-9.52,9.38A9.37,9.37,0,0,1,384.7,8.91ZM36.8,20.31H366.29a18.07,18.07,0,0,0,16,15.77V176.79a18.23,18.23,0,0,0-16,15.77H36.8a18.19,18.19,0,0,0-16-15.77V36.09a18.06,18.06,0,0,0,16-15.78ZM18.56,185.38a9.27,9.27,0,0,1,9.52,9.36,9.37,9.37,0,0,1-9.52,9.38,9.62,9.62,0,0,1-9.68-9.38A9.49,9.49,0,0,1,18.56,185.38Zm366.14,0a9.36,9.36,0,0,1,9.52,9.36,9.48,9.48,0,0,1-9.52,9.38,9.37,9.37,0,0,1-9.52-9.38A9.27,9.27,0,0,1,384.7,185.38Z"/></svg>