<svg id="Calque_1" data-name="Calque 1" xmlns="http://www.w3.org/2000/svg" viewBox="0 0 506.96 506.02"><path d="M490.24,185.21c-8.18,10.3-16.47,20.5-24.65,30.8L406,290.38q-36,44.85-71.79,89.6-31.26,39-62.39,77.84l-20.49,25.53c-2.91,3.7-7.73,7.84-9.75,12.21-.11.22-.33.34-.45.56,1.35-.56,2.69-1.12,3.93-1.68H102.26c1.35.56,2.69,1.12,3.93,1.68-21.4-20.72-42.9-41.33-64.29-62.05-7.73-7.5-16.58-14.67-23.52-22.85-10.08-12-8.07-28.11,1.23-39.64q17.64-21.68,35.16-43.46,32.43-40,65-80.08,37.79-46.71,75.71-93.3L261.75,73q19-23.34,37.86-46.7c6.72-8.18,14.45-14.9,25.87-15.12,12.77-.22,20.72,7.84,29.34,15.68Q394,62.12,433.11,97.29c12.54,11.31,25.2,22.62,37.74,33.94,5.94,5.37,12.66,10.41,17.92,16.46,9.75,11.2,9,27.11.23,38.64-4.37,5.71,5.37,11.31,9.63,5.6,13-17,10.41-40.88-5.15-55.32-5.15-4.71-10.42-9.3-15.57-14C455,102,432.1,81.39,409.14,60.78c-17.92-16.13-35.95-32.37-53.87-48.49C344,2.21,329.4-2.84,314.39,1.64c-9.07,2.69-16.13,8.4-21.95,15.57Q253,65.76,213.59,114.43,151.1,191.53,88.48,268.77,49.84,316.3,11.2,364C4.59,372.14,0,381.32,0,392.08-.11,406.86,8.06,417.39,18,427c21.39,20.61,42.67,41.22,64.06,61.83l11.77,11.42c1.79,1.8,4,4.6,6.49,5.38,2,.56,4.6.22,6.72.22H215.38c9.4,0,18.81.34,28.22,0,4.26-.11,5.49-2.13,7.84-5,10.41-13,20.83-26.1,31.36-39.09Q341.93,388,401,314.12q46-57.45,92-114.8c1.57-2,3.25-4,4.82-5.94,4.93-5.82-3-13.77-7.5-8.17Z"/><path d="M224.35,109.72c22.84,18.37,45.8,36.73,68.65,55.1l108.86,87.36c8.4,6.72,16.69,13.44,25.09,20.16,5.6,4.48,13.55-3.36,7.95-7.95-22.84-18.37-45.8-36.73-68.65-55.1L257.39,121.93c-8.4-6.72-16.69-13.44-25.09-20.16-5.6-4.37-13.67,3.47-8,8Z"/></svg>