<?xml version="1.0" encoding="UTF-8"?>
<svg width="700pt" height="700pt" version="1.1" viewBox="0 0 700 700" xmlns="http://www.w3.org/2000/svg">
 <path d="m478.33 140h-256.66c-3.0977 0-6.0664 1.2266-8.2539 3.4141s-3.4141 5.1562-3.4141 8.2539v23.332c0 6.4414 5.2227 11.668 11.668 11.668 6.4414 0 11.664-5.2266 11.664-11.668v-11.668h105v233.34h-23.332c-6.4414 0-11.668 5.2227-11.668 11.664 0 6.4453 5.2266 11.668 11.668 11.668h70c6.4414 0 11.668-5.2227 11.668-11.668 0-6.4414-5.2266-11.664-11.668-11.664h-23.332v-233.34h105v11.668c0 6.4414 5.2227 11.668 11.664 11.668 6.4453 0 11.668-5.2266 11.668-11.668v-23.332c0-3.0977-1.2266-6.0664-3.4141-8.2539s-5.1562-3.4141-8.2539-3.4141z"/>
</svg>
